<?xml version="1.0" standalone="no"?>
<!DOCTYPE svg PUBLIC "-//W3C//DTD SVG 20010904//EN"
 "http://www.w3.org/TR/2001/REC-SVG-20010904/DTD/svg10.dtd">
<svg version="1.0" xmlns="http://www.w3.org/2000/svg"
 width="923.000000pt" height="923.000000pt" viewBox="0 0 923.000000 923.000000"
 preserveAspectRatio="xMidYMid meet">
<metadata>
Created by potrace 1.11, written by Peter Selinger 2001-2013
</metadata>
<g transform="translate(0.000000,923.000000) scale(0.100000,-0.100000)"
fill="#000000" stroke="none">
<path d="M4359 8146 c-2 -2 -52 -7 -111 -10 -59 -4 -117 -9 -130 -11 -13 -2
-52 -6 -88 -10 -36 -3 -74 -8 -85 -10 -11 -2 -42 -7 -69 -10 -42 -5 -155 -25
-221 -39 -11 -3 -54 -12 -95 -21 -444 -95 -927 -315 -1240 -564 -70 -56 -200
-180 -200 -191 0 -4 24 -22 53 -40 28 -18 75 -47 102 -65 167 -106 484 -263
725 -358 294 -116 548 -191 855 -252 75 -15 206 -36 258 -41 34 -3 73 -7 87
-10 143 -25 710 -25 870 0 14 2 50 7 80 11 30 4 64 8 75 10 11 2 40 7 65 11
25 4 50 8 55 10 6 1 39 7 75 14 105 19 296 66 424 105 65 20 120 34 122 32 2
-2 5 -12 7 -23 2 -10 7 -27 11 -36 4 -9 8 -22 10 -30 1 -7 4 -17 8 -23 7 -13
22 -78 20 -87 -1 -5 2 -8 7 -8 5 0 7 -9 4 -20 -3 -11 0 -20 6 -20 6 0 11 -7
11 -15 0 -14 -41 -29 -210 -74 -71 -19 -301 -73 -365 -86 -193 -38 -435 -72
-578 -83 -130 -9 -477 -9 -587 0 -283 24 -594 82 -945 175 -129 34 -160 43
-410 123 -131 42 -464 160 -520 185 -16 7 -91 39 -165 70 -74 31 -138 62 -142
68 -4 6 -9 9 -11 7 -4 -4 -34 -197 -52 -330 -1 -14 -10 -74 -19 -135 -8 -60
-18 -132 -21 -160 -3 -27 -8 -57 -10 -65 -2 -8 -7 -35 -9 -60 -3 -25 -24 -171
-46 -325 -23 -154 -43 -296 -46 -315 -2 -19 -6 -46 -9 -60 -3 -14 -7 -43 -10
-65 -2 -22 -7 -58 -11 -80 -11 -77 -13 -92 -39 -271 -14 -99 -27 -189 -29
-201 -3 -11 -7 -44 -11 -74 -3 -30 -8 -61 -10 -69 -2 -8 -7 -40 -10 -70 -3
-30 -8 -62 -10 -70 -2 -8 -7 -39 -10 -69 -4 -30 -9 -63 -11 -75 -2 -12 -6 -41
-10 -66 -3 -25 -9 -70 -14 -100 -5 -30 -12 -75 -15 -100 -3 -25 -8 -56 -10
-70 -2 -14 -7 -43 -9 -65 -3 -22 -15 -103 -26 -180 -52 -355 -81 -553 -85
-590 -3 -22 -7 -51 -10 -65 -2 -14 -6 -41 -9 -60 -7 -54 -27 -192 -31 -220 -3
-14 -7 -50 -11 -80 -3 -30 -8 -58 -10 -61 -5 -8 -18 -130 -18 -160 1 -14 10
-39 21 -55 11 -16 40 -61 66 -99 88 -134 290 -356 421 -464 133 -109 381 -281
406 -281 5 0 10 -3 10 -7 0 -5 10 -13 23 -19 12 -6 81 -41 152 -77 185 -94
349 -159 595 -235 72 -23 336 -87 390 -96 19 -3 46 -8 60 -11 13 -2 40 -7 60
-10 20 -3 47 -8 60 -10 14 -3 41 -7 60 -10 97 -12 119 -15 170 -21 198 -22
341 -29 635 -29 263 0 461 7 560 20 17 2 54 6 83 10 69 7 216 28 292 41 14 2
41 7 60 10 19 3 76 15 125 26 50 11 97 21 106 23 63 13 266 72 360 105 469
162 851 392 1155 695 66 66 138 143 160 170 21 28 42 52 45 55 13 10 127 187
147 226 23 46 24 37 -9 254 -11 74 -22 150 -24 168 -3 17 -7 47 -10 65 -5 37
-31 221 -41 287 -3 25 -7 52 -9 60 -1 8 -6 42 -10 75 -5 33 -9 62 -10 65 -1 3
-5 30 -9 60 -4 30 -9 66 -11 80 -16 104 -62 423 -69 476 -5 40 -26 182 -31
214 -3 14 -11 74 -20 135 -8 60 -17 119 -19 130 -2 11 -7 43 -10 70 -13 91
-36 250 -40 275 -3 14 -8 46 -10 72 -3 26 -17 120 -30 210 -23 152 -30 198
-42 288 -3 19 -7 46 -9 60 -2 14 -7 45 -10 70 -4 25 -8 56 -10 70 -3 14 -13
88 -24 165 -21 147 -26 182 -41 280 -5 33 -12 80 -15 105 -3 25 -7 56 -10 70
-6 30 -11 65 -21 140 -4 30 -8 64 -10 75 -1 11 -7 49 -13 85 -6 36 -12 81 -15
100 -2 19 -7 61 -11 92 l-7 57 -52 -20 c-28 -12 -55 -24 -61 -28 -14 -11 -433
-178 -466 -186 -26 -6 -26 -6 -40 77 -7 46 -13 91 -13 101 0 9 -3 17 -6 17 -4
0 -7 6 -7 13 0 6 -3 32 -7 57 l-6 46 145 73 c128 64 321 171 350 193 6 5 43
29 83 55 39 26 72 51 72 55 0 15 -156 160 -244 227 -442 336 -1040 549 -1726
616 -36 4 -85 9 -110 11 -50 6 -666 14 -671 10z m796 -420 c357 -44 663 -120
937 -231 106 -44 239 -108 299 -144 l32 -20 -56 -27 -57 -28 -37 36 c-42 39
-175 139 -211 158 -96 49 -362 77 -435 46 -18 -7 -45 -28 -61 -45 -28 -29 -56
-41 -56 -23 0 18 -57 33 -122 33 -77 0 -128 -19 -153 -58 -20 -29 -5 -30 -335
14 -147 19 -201 30 -219 44 -31 25 -72 24 -105 -2 -57 -45 -73 -123 -33 -162
21 -22 31 -23 222 -25 110 -2 247 -6 305 -10 l105 -7 6 -49 c4 -38 12 -55 36
-76 61 -54 202 -47 234 11 13 25 27 24 50 -5 12 -15 38 -28 71 -36 29 -6 82
-21 117 -32 49 -16 60 -23 48 -30 -25 -13 -309 -84 -432 -107 -218 -41 -340
-52 -600 -58 -371 -8 -630 21 -1005 113 -253 62 -626 196 -824 296 l-59 30 64
35 c379 204 834 326 1409 377 119 10 741 -3 865 -18z m-2528 -1530 c610 -215
1167 -345 1660 -387 206 -17 664 -7 858 20 276 37 579 100 853 175 68 18 124
30 126 27 2 -3 36 -197 74 -431 70 -421 71 -429 92 -800 11 -206 36 -627 55
-935 19 -308 47 -756 61 -995 17 -280 31 -446 39 -467 18 -43 59 -68 115 -68
93 0 240 117 354 283 98 143 113 169 136 232 11 30 31 84 44 120 56 151 59
174 42 295 -8 61 -22 133 -31 160 -8 28 -100 480 -205 1005 -167 842 -222
1136 -275 1460 -7 47 -21 125 -29 174 -9 49 -16 96 -16 106 0 13 26 27 105 55
58 21 108 36 110 34 2 -2 121 -816 264 -1809 144 -993 264 -1816 267 -1831 10
-50 -186 -281 -365 -430 -481 -402 -1124 -629 -1949 -690 -239 -17 -768 -7
-987 20 -933 112 -1657 463 -2067 1002 l-56 74 264 1820 c145 1001 264 1826
264 1833 0 6 4 12 8 12 5 0 90 -29 189 -64z"/>
</g>
</svg>
